<svg width="288" height="194" viewBox="0 0 288 194" fill="none" xmlns="http://www.w3.org/2000/svg">
<path d="M33.2139 146.217C99.9217 131.4 168.019 132.726 226.084 167.621H226.085C228.561 169.212 230.464 170.682 231.759 172.64C233.046 174.585 233.765 177.063 233.765 180.723C233.765 187.894 228.21 192.844 221.871 192.844C218.587 192.844 216.563 191.838 213.4 189.963C162.37 159.06 103.029 157.765 44.502 169.825L44.4893 169.827L44.4775 169.831C42.8529 170.25 41.068 170.769 39.3242 171.202C37.5897 171.633 36.0134 171.945 34.8994 171.945C27.3011 171.945 22.5156 165.895 22.5156 159.497C22.5156 155.381 23.726 152.392 25.6387 150.274C27.5576 148.15 30.2241 146.858 33.21 146.218L33.2139 146.217ZM106.084 70.668C158.925 70.668 209.96 83.8437 250.153 107.886L250.154 107.887C253.399 109.819 255.631 112.014 257.057 114.574C258.394 116.975 259.041 119.73 259.116 122.951L259.124 123.602C259.043 132.189 252.404 139.082 243.806 139.082C239.718 139.082 236.989 137.279 234.01 135.698C182.93 105.315 106.806 93.0912 39.0889 111.563C35.0916 112.652 33.0976 113.677 29.5176 113.677C21.0714 113.677 14.1994 106.773 14.1992 98.2783C14.1992 93.9748 15.2385 90.4391 17.2705 87.6963C19.1747 85.1261 21.9795 83.2114 25.7139 82.0225L26.4736 81.7949C49.1084 75.412 72.2194 70.668 106.084 70.668ZM109.998 0.84375C169.466 0.843793 231.748 13.2916 277.229 39.9492L277.23 39.9502C280.366 41.7682 282.923 43.9088 284.701 46.7676C286.477 49.6236 287.5 53.2367 287.5 58.0391C287.5 68.894 278.769 76.6336 269.083 76.6338C264.965 76.6338 262.444 75.6125 258.82 73.5088H258.821C229.707 56.0423 189.163 45.2322 147.515 41.1406C106.514 37.1126 64.3884 39.591 30.9678 48.6787L29.3828 49.1162C26.4008 49.9488 22.8244 51.2285 18.999 51.2285C8.52126 51.2285 0.500102 43.0207 0.5 32.3877C0.5 21.4956 7.17101 15.3592 14.3271 13.2812L14.3291 13.2803C42.9763 4.85526 75.0545 0.84375 109.998 0.84375Z" stroke="black"/>
</svg>
