<svg width="404" height="407" viewBox="0 0 404 407" fill="none" xmlns="http://www.w3.org/2000/svg">
<path d="M203.306 0.347656C314.213 1.05424 404 91.7222 404 203.344L403.996 204.656C403.293 316.112 313.072 406.344 202 406.344L200.694 406.34C90.2222 405.636 0.704453 315.675 0.00390625 204.656L0 203.344C0 91.2845 90.4927 0.34375 202 0.34375L203.306 0.347656ZM202 1.34375C91.0497 1.34375 1 91.8321 1 203.344C1 314.855 91.0497 405.344 202 405.344C312.95 405.344 403 314.855 403 203.344C403 91.8321 312.95 1.34375 202 1.34375ZM96.1055 256.729C162.887 241.895 231.136 243.206 289.355 278.2C294.329 281.396 297.265 284.265 297.265 291.723C297.265 299.18 291.476 304.344 284.871 304.344L284.243 304.331C281.586 304.224 279.692 303.423 277.294 302.062L276.146 301.394C225.265 270.579 166.067 269.267 107.603 281.314C104.423 282.134 100.264 283.445 97.8994 283.445L97.5303 283.441C90.0797 283.255 85.3246 277.42 85.0303 271.118L85.0156 270.497C85.0156 262.32 89.6836 258.295 95.5352 256.859L96.1055 256.729ZM288.821 279.046C230.908 244.245 162.96 242.903 96.3223 257.705L96.3154 257.707C93.4014 258.332 90.8397 259.584 89.0098 261.609C87.1923 263.622 86.0156 266.485 86.0156 270.497C86.0156 276.655 90.6121 282.445 97.8994 282.445C98.9453 282.445 100.468 282.148 102.204 281.717C103.959 281.281 105.693 280.774 107.353 280.347L107.377 280.341L107.4 280.336C165.99 268.263 225.476 269.541 276.656 300.533L277.783 301.189C280.302 302.62 282.12 303.344 284.871 303.344C290.945 303.344 296.265 298.607 296.265 291.723C296.265 288.131 295.561 285.757 294.342 283.915C293.108 282.05 291.282 280.628 288.821 279.046ZM171.563 181.178C223.599 181.583 273.759 194.739 313.41 218.457C320.015 222.391 322.624 227.472 322.624 234.602C322.542 243.452 315.693 250.582 306.806 250.582L306.412 250.577C302.906 250.48 300.355 249.089 297.876 247.735L296.775 247.141C245.813 216.818 169.817 204.606 102.221 223.046C98.3068 224.111 96.1869 225.177 92.5176 225.177L92.1094 225.172C83.708 224.957 76.9174 218.132 76.7041 209.688L76.6992 209.278C76.6992 200.783 80.6781 195.057 88.5625 192.547L89.3379 192.313C112.006 185.921 135.163 181.168 169.084 181.168L171.563 181.178ZM169.084 182.168C135.275 182.168 112.211 186.903 89.6094 193.276V193.275C85.5772 194.416 82.6243 196.359 80.6719 198.994C78.7178 201.632 77.6992 205.056 77.6992 209.278C77.6994 217.5 84.3499 224.177 92.5176 224.177C96.0086 224.177 97.8767 223.192 101.958 222.081L103.55 221.653C170.993 203.767 246.465 216.052 297.263 246.267C300.279 247.868 302.879 249.582 306.806 249.582C315.115 249.582 321.543 242.926 321.624 234.602L321.616 233.963C321.542 230.802 320.909 228.131 319.62 225.817C318.246 223.351 316.085 221.213 312.898 219.315L312.896 219.314C272.79 195.325 221.846 182.168 169.084 182.168ZM175.79 111.353C234.467 111.736 295.613 124.218 340.481 150.518C346.841 154.205 351 159.287 351 169.039L350.993 169.559C350.719 180.431 341.875 188.134 332.083 188.134L331.306 188.121C327.765 188.004 325.344 187.073 322.24 185.325L321.564 184.938C263.508 150.107 159.707 141.748 92.5176 160.598L90.1855 161.276C87.7318 161.991 84.9342 162.728 81.999 162.729L81.4961 162.723C71.147 162.468 63.2538 154.38 63.0059 143.896L63 143.388C63 132.59 69.4282 126.331 76.502 124.013L77.1885 123.801C105.891 115.36 138.017 111.344 172.998 111.344L175.79 111.353ZM172.998 112.344C138.092 112.344 106.062 116.351 77.4697 124.76L77.4668 124.761C70.4929 126.786 64 132.749 64 143.388C64.0001 153.754 71.8067 161.729 81.999 161.729C85.7354 161.728 89.2187 160.48 92.2471 159.635C125.988 150.169 168.866 147.546 210.563 151.643C252.248 155.738 292.867 166.559 322.066 184.073L322.726 184.45C325.96 186.272 328.333 187.134 332.083 187.134C341.508 187.134 350 179.604 350 169.039C350 164.311 348.994 160.794 347.276 158.032C345.555 155.265 343.07 153.175 339.979 151.383L339.976 151.38C294.596 124.781 232.41 112.344 172.998 112.344Z" fill="black"/>
</svg>
