<svg width="401" height="77" viewBox="0 0 401 77" fill="none" xmlns="http://www.w3.org/2000/svg">
<path d="M268.426 15.0892H281.265L284.764 33.7751C286.226 41.5354 287.841 53.1627 288.327 57.9431H288.936C289.544 52.736 290.913 41.4594 292.435 33.716L296.057 15.0892H308.837V65.5511H301.352V43.6359C301.352 36.8734 301.838 28.3904 302.265 20.6895H301.584L300.317 27.6296L292.768 65.5511H284.494L276.887 27.6296L275.703 20.6895H275.031C275.454 28.6314 275.915 36.9411 275.915 43.6359V65.5511H268.426V15.0892Z" fill="white"/>
<path d="M313.974 56.6313V28.875H321.762V55.748C321.762 59.2181 322.609 60.8201 324.534 60.8201C326.299 60.8201 327.514 59.7844 328.339 57.5655V28.875H336.128V65.5793H329.587L329.099 60.5579H328.551C327.392 64.603 325.233 66.3105 321.493 66.3105C316.374 66.3105 313.974 63.2334 313.974 56.6313Z" fill="white"/>
<path d="M340.042 54.7756L346.554 54.653C346.307 58.6686 347.77 61.1662 350.48 61.1662C352.639 61.1662 354.038 59.6744 354.038 57.4215C354.038 54.7124 351.545 52.8567 347.526 49.7545C342.72 46.1025 340.013 43.6343 340.013 37.7297C340.013 31.2798 343.391 28.1732 350.419 28.1732C357.875 28.1732 360.765 31.7362 360.31 40.4093L353.826 40.7138C353.733 35.2654 352.883 33.469 350.298 33.469C347.981 33.469 346.766 34.6866 346.766 37.0027C346.766 40.2572 348.53 41.6859 351.27 43.6975C357.82 48.5668 360.749 50.7266 360.749 56.6608C360.749 63.1445 357.156 66.382 350.034 66.382C342.364 66.399 339.015 62.5064 340.042 54.7756Z" fill="white"/>
<path d="M364.153 19.8695C364.153 16.3361 365.247 15.0892 368.378 15.0892C371.425 15.0892 372.548 16.3572 372.548 19.8695C372.548 23.5213 371.483 24.7682 368.378 24.7682C365.273 24.7682 364.153 23.4579 364.153 19.8695ZM364.573 28.8469H372.122V65.5511H364.573V28.8469Z" fill="white"/>
<path d="M376.744 49.7298V44.497C376.744 32.5652 379.824 28.123 387.947 28.123C391.357 28.123 393.76 28.8839 395.341 30.4646C397.455 32.5781 398.203 36.251 397.776 41.9695L391.052 42.3924C391.017 35.4226 390.292 33.2332 387.822 33.2332C385.178 33.2332 384.54 35.3927 384.54 43.3982V50.6426C384.54 58.9817 385.146 61.053 387.764 61.053C390.378 61.053 391.264 58.9397 391.293 52.3799L398.055 52.7136C398.206 58.3731 397.263 61.9067 395.04 63.944C393.455 65.4654 391.116 66.1671 387.645 66.1671C379.426 66.1671 376.744 62.1477 376.744 49.7298Z" fill="white"/>
<path d="M39.102 20.3278C35.2582 20.3278 31.5002 21.4676 28.3037 23.603C25.1072 25.7385 22.6154 28.7737 21.1434 32.3253C19.6714 35.8766 19.2851 39.7846 20.0335 43.5557C20.7819 47.3265 22.6314 50.7908 25.3481 53.5108C28.0648 56.2309 31.5268 58.0843 35.2963 58.8367C39.0661 59.5894 42.9744 59.2072 46.5269 57.7391C50.0798 56.2707 53.1174 53.7819 55.2562 50.5874C57.3946 47.3929 58.5386 43.6359 58.5428 39.7914C58.5383 34.6346 56.4893 29.6896 52.8451 26.041C49.2008 22.3924 44.2585 20.3379 39.102 20.3278ZM31.9514 50.709V28.8699L50.851 39.7914L31.9514 50.709Z" fill="white"/>
<path d="M39.102 2.83234C31.7923 2.8315 24.6464 4.99856 18.5681 9.05951C12.4898 13.1204 7.75213 18.8928 4.95421 25.6467C2.15629 32.4006 1.42379 39.8324 2.84935 47.0027C4.27492 54.173 7.79451 60.7594 12.963 65.929C18.1316 71.0986 24.7169 74.6194 31.8862 76.0458C39.0555 77.4726 46.4868 76.7407 53.2403 73.9434C59.9938 71.1457 65.7659 66.4083 69.8272 60.3298C73.8886 54.2513 76.0562 47.1051 76.0562 39.7942C76.0562 29.9922 72.163 20.5913 65.2328 13.6597C58.3028 6.72814 48.9034 2.83346 39.102 2.83234ZM39.102 62.2378C34.6624 62.2388 30.3223 60.9227 26.6306 58.4565C22.9388 55.9902 20.0613 52.4845 18.3619 48.3826C16.6625 44.2804 16.2177 39.7666 17.0836 35.412C17.9495 31.057 20.0873 27.0568 23.2266 23.9172C26.3659 20.7776 30.3657 18.6396 34.7202 17.7735C39.0744 16.9075 43.5877 17.3524 47.6895 19.052C51.7909 20.7515 55.2963 23.6293 57.7623 27.3215C60.2283 31.0137 61.5442 35.3542 61.5432 39.7942C61.54 45.745 59.1741 51.4507 54.9662 55.6575C50.7583 59.8646 45.0522 62.2282 39.102 62.2295V62.2378Z" fill="white"/>
<path d="M92.973 65.6104V49.9082L83.4173 15.0892H91.147L94.5536 30.4277C95.3777 34.2021 96.2438 39.6502 96.5948 41.2649H97.1398C97.5627 39.2235 98.357 34.0796 99.1811 30.4911L102.71 15.0892H110.44L100.762 49.9082V65.6104H92.973Z" fill="white"/>
<path d="M130.947 45.7143V48.6983C130.947 61.8432 128.116 66.1671 119.625 66.1671C111.046 66.1671 108.308 61.9658 108.308 48.6983V45.7143C108.308 32.7472 111.38 28.123 119.807 28.123C128.057 28.123 130.947 32.6288 130.947 45.7143ZM123.036 42.8531C123.036 35.4858 122.305 33.2964 119.689 33.2964C117.009 33.2964 116.219 35.5493 116.219 42.8531V51.4456C116.219 58.838 116.95 61.0613 119.566 61.0613C122.335 61.0613 123.036 58.948 123.036 51.4456V42.8531Z" fill="white"/>
<path d="M135.071 56.6313V28.875H142.86V55.748C142.86 59.2181 143.68 60.8201 145.628 60.8201C147.395 60.8201 148.612 59.7844 149.432 57.5655V28.875H157.225V65.5793H150.708L150.222 60.5579H149.677C148.519 64.603 146.36 66.3105 142.615 66.3105C137.488 66.3105 135.071 63.2334 135.071 56.6313Z" fill="white"/>
<path d="M163.749 65.5511V21.6616H155.441V15.0892H179.868V21.6616H171.539V65.5511H163.749Z" fill="white"/>
<path d="M178.144 56.6313V28.875H185.933V55.748C185.933 59.2181 186.753 60.8201 188.701 60.8201C190.468 60.8201 191.685 59.7844 192.505 57.5655V28.875H200.298V65.5793H193.756L193.266 60.5579H192.721C191.563 64.603 189.403 66.3105 185.659 66.3105C180.549 66.3105 178.144 63.2334 178.144 56.6313Z" fill="white"/>
<path d="M228.257 44.3382V49.33C228.257 61.1053 225.857 66.1266 220.346 66.1266C217.028 66.1266 214.475 64.6684 213.161 62.0479H212.675L212.126 65.5815H205.406V13.2344H212.891V23.6404C212.891 26.4426 212.954 29.2407 212.679 32.8925H213.288C214.898 29.6972 217.366 28.146 220.68 28.146C226.279 28.146 228.257 32.2839 228.257 44.3382ZM220.287 44.3382C220.287 35.847 219.585 33.5011 216.905 33.5011C215.046 33.5011 213.495 35.1919 212.886 37.8545V58.5652C213.205 59.2611 213.721 59.8482 214.37 60.2538C215.019 60.6593 215.773 60.8659 216.538 60.8476C219.34 60.8476 220.282 57.9566 220.282 49.7696L220.287 44.3382Z" fill="white"/>
<path d="M253.759 49.5684H239.851V51.9144C239.851 58.4866 240.032 61.0437 243.016 61.0437C245.603 61.0437 246.545 59.3532 246.668 54.7037L253.484 55.0419C253.882 62.3456 250.289 66.1497 242.986 66.1497C235.227 66.1497 232.091 61.644 232.091 50.511V44.002C232.091 32.6788 235.286 28.1732 243.227 28.1732C251.232 28.1732 253.759 31.8884 253.759 43.6343V49.5684ZM239.851 42.3577V45.4897H246V42.3577C246 35.4473 245.696 33.2284 242.893 33.2284C240.092 33.2284 239.851 35.5108 239.851 42.3577Z" fill="white"/>
</svg>
