<svg width="338" height="342" viewBox="0 0 338 342" fill="none" xmlns="http://www.w3.org/2000/svg">
<path d="M169 5.34375C75.7093 5.34375 0 79.5551 0 171C0 262.445 75.7093 336.656 169 336.656C262.291 336.656 338 262.445 338 171C338 79.5551 262.291 5.34375 169 5.34375Z" fill="#737373"/>
<path d="M277.078 154.368C273.535 154.368 271.354 153.499 268.288 151.762C219.768 123.374 133.019 116.561 76.8678 131.924C74.4145 132.592 71.348 133.661 68.077 133.661C59.0819 133.661 52.1992 126.78 52.1992 117.896C52.1992 108.812 57.9234 103.669 64.0565 101.932C88.0436 95.0519 114.893 91.7789 144.127 91.7789C193.873 91.7789 246.004 101.932 284.097 123.708C289.413 126.714 292.888 130.855 292.888 138.804C292.888 147.888 285.392 154.368 277.078 154.368ZM255.953 205.267C252.41 205.267 250.025 203.73 247.571 202.461C204.981 177.746 141.469 167.794 84.977 182.823C81.7061 183.691 79.9343 184.56 76.8678 184.56C69.5762 184.56 63.6476 178.748 63.6476 171.601C63.6476 164.454 67.1912 159.711 74.2101 157.774C93.1545 152.564 112.508 148.69 140.856 148.69C185.082 148.69 227.809 159.444 261.473 179.082C266.993 182.289 269.173 186.43 269.173 192.241C269.105 199.455 263.381 205.267 255.953 205.267ZM237.622 249.086C234.76 249.086 232.988 248.217 230.331 246.681C187.808 221.565 138.335 220.496 89.4746 230.316C86.817 230.984 83.3416 232.052 81.3654 232.052C74.7553 232.052 70.5984 226.909 70.5984 221.498C70.5984 214.618 74.7553 211.345 79.8662 210.277C135.677 198.186 192.715 199.255 241.37 227.777C245.527 230.382 247.98 232.72 247.98 238.799C247.98 244.877 243.142 249.086 237.622 249.086Z" fill="#252525"/>
</svg>
